<?xml version="1.0" encoding="UTF-8" standalone="no"?>
<!-- Created with Inkscape (http://www.inkscape.org/) -->
<svg
   xmlns:svg="http://www.w3.org/2000/svg"
   xmlns="http://www.w3.org/2000/svg"
   version="1.0"
   width="427pt"
   height="427pt"
   id="svg2">
  <defs
     id="defs37" />
  <g
     transform="translate(24.322459,201.1326)"
     id="g2173">
    <g
       transform="matrix(1.230646,0,0,1.230646,0.296875,0.823242)"
       style="fill:#f2f2f2;fill-rule:evenodd;stroke:none;stroke-width:1pt;stroke-linecap:butt;stroke-linejoin:miter;stroke-dasharray:none"
       id="g4">
      <path
         d="M 62.5127,0 C 96.9433,0 125.024,28.0323 125.024,62.4014 C 125.024,96.7706 96.9433,124.803 62.5127,124.803 C 28.082,124.803 0,96.7706 0,62.4014 C 0,28.0323 28.082,0 62.5127,0 z M 62.5117,20.5586 C 78.9365,20.5586 98.1455,32.0967 98.1465,60.5733 C 98.1465,68.1143 98.1465,73.2676 95.4463,80.4766 C 95.4463,80.4766 103.833,80.4766 103.833,80.4766 C 103.833,80.4766 112.171,75.5821 112.171,75.5821 C 112.939,68.2618 112.99,60.6358 112.171,52.6416 C 112.171,52.6416 103.76,48.295 103.76,48.295 C 103.76,45.2461 95.0273,14.6973 62.5127,14.6973 C 29.997,14.6973 21.2656,45.2461 21.2646,48.295 C 21.2646,48.295 12.8535,52.6416 12.8535,52.6416 C 12.0342,60.6358 12.0849,68.2618 12.8535,75.5821 C 12.8535,75.5821 21.1924,80.4766 21.1924,80.4766 C 21.1924,80.4766 29.5791,80.4766 29.5791,80.4766 C 26.8789,73.2676 26.8779,68.1143 26.8789,60.5733 C 26.8799,32.0967 46.0879,20.5586 62.5117,20.5586 z M 62.5342,26.4092 C 79.5683,26.4092 93.5049,40.3321 93.5049,57.3487 C 93.5049,57.3487 93.5049,63.7872 93.5049,63.7872 C 93.5049,68.3077 92.4228,73.5918 90.541,78.9161 C 87.0869,87.3956 81.8242,95.6817 75.7402,103.88 C 75.0195,105.218 73.2324,106.474 71.0312,106.896 C 71.0312,106.896 53.7627,106.896 53.7627,106.896 C 51.8506,106.42 50.2802,105.415 49.0547,103.88 C 42.5146,94.9883 37.3398,86.6026 34.5996,79.1192 C 32.6728,73.7276 31.5625,68.3653 31.5625,63.7872 C 31.5625,63.7872 31.5625,57.3487 31.5625,57.3487 C 31.5625,40.3321 45.499,26.4092 62.5342,26.4092 z M 62.5342,33.3868 C 76.4306,33.3868 87.8017,44.5186 87.8017,58.1231 C 87.8017,58.1231 87.8017,63.2715 87.8017,63.2715 C 87.8017,67.2032 86.7558,71.8594 84.9619,76.4932 C 81.7851,84.0411 77.5976,91.6875 71.6084,99.5078 C 71.0664,100.497 69.9756,100.957 68.5068,101.054 C 68.5068,101.054 56.4433,101.054 56.4433,101.054 C 54.917,101.056 53.7685,100.592 53.1689,99.4478 C 46.9717,91.7579 42.9453,84.3907 40.4043,77.2442 C 38.4277,72.3653 37.2656,67.4161 37.2656,63.2715 C 37.2656,63.2715 37.2656,58.1231 37.2656,58.1231 C 37.2656,44.5186 48.6367,33.3868 62.5342,33.3868 z "
         id="path6" />
    </g>
    <g
       transform="matrix(1.230646,0,0,1.230646,468.2551,44.388552)"
       style="fill:#f2f2f2;fill-rule:evenodd;stroke:none;stroke-width:1pt;stroke-linecap:butt;stroke-linejoin:miter;stroke-dasharray:none"
       id="g8">
      <path
         d="M 25.87,24.5342 C 25.87,24.5342 25.87,19.7285 25.87,19.7285 C 25.87,16.3282 25.684,14.128 25.329,13.1299 C 24.957,12.1485 24.212,11.6416 23.095,11.6416 C 21.708,11.6416 20.845,12.0645 20.523,12.9102 C 20.185,13.7559 20.016,16.0235 20.016,19.7285 C 20.016,19.7285 20.016,24.5342 20.016,24.5342 C 20.016,24.5342 25.87,24.5342 25.87,24.5342 z M 45.954,35.2442 C 45.954,35.2442 20.016,35.2442 20.016,35.2442 C 20.016,35.2442 20.016,49.4737 20.016,49.4737 C 20.016,52.4512 20.236,54.3633 20.659,55.2256 C 21.098,56.0723 21.928,56.5118 23.146,56.5118 C 24.669,56.5118 25.684,55.9366 26.191,54.8028 C 26.699,53.6524 26.97,51.4532 26.97,48.1875 C 26.97,48.1875 26.97,39.5078 26.97,39.5078 C 26.97,39.5078 45.954,39.5078 45.954,39.5078 C 45.954,39.5078 45.954,44.3633 45.954,44.3633 C 45.954,48.4239 45.683,51.5547 45.176,53.7373 C 44.668,55.92 43.467,58.2373 41.589,60.7246 C 39.693,63.1953 37.307,65.0554 34.415,66.2914 C 31.538,67.5434 27.9,68.1524 23.535,68.1524 C 19.305,68.1524 15.583,67.5434 12.335,66.3254 C 9.103,65.1064 6.582,63.4317 4.788,61.2998 C 2.977,59.168 1.725,56.8164 1.032,54.2618 C 0.339,51.6895 0,47.9678 0,43.0782 C 0,43.0782 0,23.8907 0,23.8907 C 0,18.1387 0.778,13.6035 2.318,10.2881 C 3.875,6.9717 6.429,4.417 9.966,2.6573 C 13.502,0.8799 17.562,0 22.147,0 C 27.765,0 32.401,1.0664 36.055,3.1983 C 39.711,5.3301 42.265,8.1553 43.737,11.6748 C 45.209,15.1944 45.954,20.1348 45.954,26.5137 C 45.954,26.5137 45.954,35.2442 45.954,35.2442 z "
         id="path10" />
    </g>
    <g
       transform="matrix(1.230646,0,0,1.230646,403.35329,28.044096)"
       style="fill:#f2f2f2;fill-rule:evenodd;stroke:none;stroke-width:1pt;stroke-linecap:butt;stroke-linejoin:miter;stroke-dasharray:none"
       id="g12">
      <path
         d="M 26.124,31.0303 C 26.124,28.6113 25.92,27.0029 25.498,26.1748 C 25.091,25.3457 24.262,24.9228 23.044,24.9228 C 21.86,24.9228 21.047,25.2949 20.642,26.039 C 20.236,26.7832 20.016,28.4414 20.016,31.0303 C 20.016,31.0303 20.016,63.2451 20.016,63.2451 C 20.016,65.9189 20.218,67.6777 20.625,68.5244 C 21.014,69.3701 21.775,69.793 22.892,69.793 C 24.178,69.793 25.041,69.3193 25.481,68.3721 C 25.904,67.4414 26.124,65.123 26.124,61.4687 C 26.124,61.4687 26.124,31.0303 26.124,31.0303 z M 46.139,0 C 46.139,0 46.139,80.2486 46.139,80.2486 C 46.139,80.2486 26.124,80.2486 26.124,80.2486 C 26.124,80.2486 26.124,75.4951 26.124,75.4951 C 24.195,77.4746 22.181,78.9636 20.067,79.9456 C 17.952,80.9436 15.735,81.4336 13.434,81.4336 C 10.321,81.4336 7.63,80.6206 5.346,78.9806 C 3.062,77.3566 1.607,75.4609 0.964,73.3125 C 0.321,71.1631 0,67.6611 0,62.8056 C 0,62.8056 0,32.0117 0,32.0117 C 0,26.9697 0.321,23.3828 0.964,21.2676 C 1.607,19.1523 3.079,17.292 5.397,15.6846 C 7.715,14.0771 10.473,13.2812 13.67,13.2812 C 16.158,13.2812 18.425,13.7217 20.49,14.6181 C 22.553,15.5146 24.431,16.8515 26.124,18.6279 C 26.124,18.6279 26.124,0 26.124,0 C 26.124,0 46.139,0 46.139,0 z "
         id="path14" />
    </g>
    <g
       transform="matrix(1.230646,0,0,1.230646,378.82528,106.66724)"
       style="fill:#f2f2f2;fill-rule:evenodd;stroke:none;stroke-width:1pt;stroke-linecap:butt;stroke-linejoin:miter;stroke-dasharray:none"
       id="g16">
      <path
         d="M 15.126,0 C 15.126,0 15.126,16.3609 15.126,16.3609 C 15.126,16.3609 0,16.3609 0,16.3609 C 0,16.3609 0,0 0,0 C 0,0 15.126,0 15.126,0 z "
         id="path18" />
    </g>
    <g
       transform="matrix(1.230646,0,0,1.230646,335.2235,35.060255)"
       style="fill:#f2f2f2;fill-rule:evenodd;stroke:none;stroke-width:1pt;stroke-linecap:butt;stroke-linejoin:miter;stroke-dasharray:none"
       id="g20">
      <path
         d="M 24.381,0 C 24.381,0 24.381,10.3554 24.381,10.3554 C 24.381,10.3554 29.778,10.3554 29.778,10.3554 C 29.778,10.3554 29.778,20.7607 29.778,20.7607 C 29.778,20.7607 24.381,20.7607 24.381,20.7607 C 24.381,20.7607 24.381,55.9531 24.381,55.9531 C 24.381,60.2851 24.601,62.7041 25.058,63.1953 C 25.498,63.6855 27.359,63.9394 30.624,63.9394 C 30.624,63.9394 30.624,74.5474 30.624,74.5474 C 30.624,74.5474 22.554,74.5474 22.554,74.5474 C 17.986,74.5474 14.736,74.3624 12.775,73.9724 C 10.828,73.6004 9.119,72.7204 7.631,71.3505 C 6.142,69.9794 5.211,68.4062 4.856,66.6464 C 4.484,64.8701 4.297,60.7246 4.297,54.1767 C 4.297,54.1767 4.297,20.7607 4.297,20.7607 C 4.297,20.7607 0,20.7607 0,20.7607 C 0,20.7607 0,10.3554 0,10.3554 C 0,10.3554 4.297,10.3554 4.297,10.3554 C 4.297,10.3554 4.297,0 4.297,0 C 4.297,0 24.381,0 24.381,0 z "
         id="path22" />
    </g>
    <g
       transform="matrix(1.230646,0,0,1.230646,273.59028,45.846375)"
       style="fill:#f2f2f2;fill-rule:evenodd;stroke:none;stroke-width:1pt;stroke-linecap:butt;stroke-linejoin:miter;stroke-dasharray:none"
       id="g24">
      <path
         d="M 46.156,0 C 46.156,0 46.156,65.7828 46.156,65.7828 C 46.156,65.7828 25.785,65.7828 25.785,65.7828 C 25.785,65.7828 26.124,60.335 26.124,60.335 C 24.736,62.5518 23.027,64.2098 20.997,65.3098 C 18.967,66.4268 16.632,66.9678 13.992,66.9678 C 10.981,66.9678 8.477,66.4438 6.497,65.3948 C 4.518,64.3278 3.063,62.9238 2.115,61.1816 C 1.167,59.4219 0.592,57.5947 0.356,55.6992 C 0.118,53.7871 0,50.0147 0,44.3633 C 0,44.3633 0,0 0,0 C 0,0 20.033,0 20.033,0 C 20.033,0 20.033,44.7695 20.033,44.7695 C 20.033,49.8955 20.185,52.9248 20.507,53.8887 C 20.812,54.8535 21.674,55.3272 23.062,55.3272 C 24.551,55.3272 25.431,54.8369 25.701,53.8379 C 25.988,52.8398 26.124,49.6592 26.124,44.2783 C 26.124,44.2783 26.124,0 26.124,0 C 26.124,0 46.156,0 46.156,0 z "
         id="path26" />
    </g>
    <g
       transform="matrix(1.230646,0,0,1.230646,209.91666,44.388552)"
       style="fill:#f2f2f2;fill-rule:evenodd;stroke:none;stroke-width:1pt;stroke-linecap:butt;stroke-linejoin:miter;stroke-dasharray:none"
       id="g28">
      <path
         d="M 18.798,26.666 C 18.798,26.666 0,26.666 0,26.666 C 0,26.666 0,22.25 0,22.25 C 0,17.1739 0.593,13.2481 1.76,10.4903 C 2.944,7.7325 5.296,5.2793 8.832,3.1641 C 12.368,1.0498 16.954,0 22.604,0 C 29.39,0 34.482,1.2022 37.917,3.5879 C 41.368,5.9903 43.433,8.9336 44.126,12.419 C 44.82,15.9053 45.158,23.0791 45.158,33.958 C 45.158,33.958 45.158,66.9674 45.158,66.9674 C 45.158,66.9674 25.684,66.9674 25.684,66.9674 C 25.684,66.9674 25.684,61.1143 25.684,61.1143 C 24.466,63.4659 22.876,65.2254 20.946,66.3924 C 19.017,67.5774 16.717,68.1524 14.026,68.1524 C 10.524,68.1524 7.309,67.1714 4.383,65.2084 C 1.473,63.2461 0,58.9317 0,52.2989 C 0,52.2989 0,46.8848 0,46.8848 C 0,41.961 0.778,38.6114 2.335,36.834 C 3.891,35.041 7.732,32.96 13.891,30.5909 C 20.456,28.002 23.975,26.2764 24.449,25.3799 C 24.906,24.4834 25.142,22.6729 25.142,19.9317 C 25.142,16.4971 24.872,14.2471 24.364,13.2149 C 23.857,12.166 23.011,11.6416 21.809,11.6416 C 20.456,11.6416 19.61,12.0811 19.289,12.961 C 18.95,13.8409 18.798,16.1075 18.798,19.7793 C 18.798,19.7793 18.798,26.666 18.798,26.666 z M 25.142,35.6836 C 21.928,38.0362 20.066,39.9981 19.559,41.5889 C 19.052,43.1787 18.798,45.4629 18.798,48.4239 C 18.798,51.8252 19.017,54.0244 19.458,55.0225 C 19.897,56.0215 20.794,56.5118 22.114,56.5118 C 23.366,56.5118 24.179,56.1231 24.567,55.3448 C 24.939,54.5664 25.142,52.5186 25.142,49.2198 C 25.142,49.2198 25.142,35.6836 25.142,35.6836 z "
         id="path30" />
    </g>
    <g
       transform="matrix(1.230646,0,0,1.230646,176.7889,28.044096)"
       style="fill:#f2f2f2;fill-rule:evenodd;stroke:none;stroke-width:1pt;stroke-linecap:butt;stroke-linejoin:miter;stroke-dasharray:none"
       id="g32">
      <path
         d="M 20.625,0 C 20.625,0 20.625,80.2486 20.625,80.2486 C 20.625,80.2486 0,80.2486 0,80.2486 C 0,80.2486 0,0 0,0 C 0,0 20.625,0 20.625,0 z "
         id="path34" />
    </g>
  </g>
</svg>
